<svg width="25" height="24" viewBox="0 0 25 24" fill="none" xmlns="http://www.w3.org/2000/svg">
<path d="M12.5 0L15.0035 1.296L17.7905 1.719L19.0535 4.239L21.059 6.219L20.6 9L21.059 11.781L19.0535 13.761L17.7905 16.281L15.0035 16.704L12.5 18L9.99651 16.704L7.20951 16.281L5.94651 13.761L3.94101 11.781L4.40001 9L3.94101 6.219L5.94651 4.239L7.20951 1.719L9.99651 1.296L12.5 0Z" fill="white"/>
<path d="M6.5 17.6909V23.9999L12.5 22.4999L18.5 23.9999V17.6909L15.473 18.1499L12.5 19.6889L9.527 18.1499L6.5 17.6909Z" fill="white"/>
</svg>
