<svg width="25" height="24" viewBox="0 0 25 24" fill="none" xmlns="http://www.w3.org/2000/svg">
<path d="M2.56001 14.6799C2.62892 14.9324 2.79407 15.1478 3.02001 15.2799L4.93001 16.3899V18.5899C4.93001 18.8551 5.03537 19.1095 5.2229 19.297C5.41044 19.4845 5.66479 19.5899 5.93001 19.5899H8.13001L9.24001 21.4999C9.32726 21.651 9.45255 21.7767 9.60342 21.8644C9.7543 21.9521 9.9255 21.9988 10.1 21.9999C10.2795 21.9998 10.4557 21.9515 10.61 21.8599L12.51 20.7599L14.42 21.8599C14.5335 21.9264 14.6591 21.9699 14.7895 21.9878C14.9198 22.0057 15.0525 21.9977 15.1797 21.9643C15.307 21.9308 15.4264 21.8726 15.5312 21.7929C15.6359 21.7132 15.7238 21.6136 15.79 21.4999L16.89 19.5899H19.09C19.3552 19.5899 19.6096 19.4845 19.7971 19.297C19.9847 19.1095 20.09 18.8551 20.09 18.5899V16.3899L22 15.2799C22.2287 15.148 22.396 14.9309 22.4653 14.6762C22.5346 14.4214 22.5004 14.1495 22.37 13.9199L21.26 11.9999L22.37 10.0899C22.5004 9.86028 22.5346 9.58842 22.4653 9.33363C22.396 9.07884 22.2287 8.86181 22 8.72989L20.09 7.62989V5.42989C20.09 5.16468 19.9847 4.91032 19.7971 4.72279C19.6096 4.53525 19.3552 4.42989 19.09 4.42989H16.89L15.79 2.51989C15.6556 2.29187 15.4362 2.12645 15.18 2.05989C15.053 2.02576 14.9205 2.01702 14.79 2.03418C14.6596 2.05134 14.5339 2.09406 14.42 2.15989L12.5 3.25989L10.6 2.15989C10.3716 2.02868 10.1006 1.99289 9.846 2.0603C9.59135 2.1277 9.37359 2.29286 9.24001 2.51989L8.13001 4.42989H5.93001C5.66479 4.42989 5.41044 4.53525 5.2229 4.72279C5.03537 4.91032 4.93001 5.16468 4.93001 5.42989V7.62989L3.03001 8.72989C2.91542 8.79522 2.81489 8.88258 2.73421 8.98692C2.65352 9.09127 2.59428 9.21055 2.55989 9.33789C2.5255 9.46523 2.51664 9.59812 2.53382 9.72889C2.551 9.85967 2.59389 9.98576 2.66001 10.0999L3.76001 11.9999L2.66001 13.9099C2.59284 14.0251 2.5494 14.1526 2.53222 14.2848C2.51505 14.417 2.5245 14.5514 2.56001 14.6799ZM5.78001 11.5099L4.89001 9.99989L6.44001 9.09989C6.58929 9.01139 6.71296 8.88555 6.79887 8.73477C6.88479 8.58398 6.92998 8.41344 6.93001 8.23989V6.42989H8.71001C8.88622 6.43059 9.05948 6.38472 9.21226 6.29692C9.36504 6.20911 9.4919 6.0825 9.58001 5.92989L10.5 4.38989L12.04 5.27989C12.192 5.36766 12.3645 5.41387 12.54 5.41387C12.7155 5.41387 12.888 5.36766 13.04 5.27989L14.59 4.38989L15.5 5.92989C15.5881 6.0825 15.715 6.20911 15.8678 6.29692C16.0205 6.38472 16.1938 6.43059 16.37 6.42989H18.14V8.20989C18.1411 8.38441 18.1878 8.55561 18.2755 8.70648C18.3632 8.85735 18.4889 8.98264 18.64 9.06989L20.18 9.96989L19.29 11.5099C19.2022 11.6619 19.156 11.8344 19.156 12.0099C19.156 12.1854 19.2022 12.3579 19.29 12.5099L20.18 14.0499L18.64 14.9499C18.4889 15.0371 18.3632 15.1624 18.2755 15.3133C18.1878 15.4642 18.1411 15.6354 18.14 15.8099V17.5899H16.31C16.1355 17.5909 15.9643 17.6377 15.8134 17.7254C15.6626 17.8131 15.5373 17.9388 15.45 18.0899L14.56 19.6299L13.01 18.7399C12.858 18.6521 12.6855 18.6059 12.51 18.6059C12.3345 18.6059 12.162 18.6521 12.01 18.7399L10.5 19.6299L9.61001 18.0899C9.5219 17.9373 9.39504 17.8107 9.24226 17.7229C9.08949 17.6351 8.91622 17.5892 8.74001 17.5899H6.93001V15.8099C6.92159 15.6449 6.87244 15.4846 6.78693 15.3432C6.70142 15.2019 6.58223 15.0839 6.44001 14.9999L4.89001 14.0999L5.78001 12.5599C5.87735 12.4021 5.92891 12.2203 5.92891 12.0349C5.92891 11.8495 5.87735 11.6677 5.78001 11.5099Z" fill="white"/>
</svg>
