<svg width="33" height="32" viewBox="0 0 33 32" fill="none" xmlns="http://www.w3.org/2000/svg">
<path fill-rule="evenodd" clip-rule="evenodd" d="M12.9956 5.02319C11.0513 4.90152 9.12953 5.49381 7.59105 6.68883C6.05256 7.88385 5.00324 9.5994 4.64013 11.5133C4.27797 13.4222 4.62326 15.3975 5.61116 17.0702C5.75469 17.3041 5.79925 17.5927 5.72051 17.8683L4.95601 20.544L7.63175 19.7795C7.90393 19.7017 8.19282 19.7437 8.42892 19.8883C10.1018 20.8766 12.0775 21.2221 13.9867 20.8599C15.9007 20.4968 17.6162 19.4474 18.8112 17.9089C20.0062 16.3705 20.5985 14.4486 20.4768 12.5044C20.3552 10.5601 19.5279 8.7271 18.1504 7.34961C16.7729 5.97211 14.9399 5.14486 12.9956 5.02319ZM7.77956 21.8173C9.78937 22.8929 12.1113 23.2514 14.3595 22.8248C16.7522 22.3709 18.8968 21.0591 20.3907 19.1358C21.8846 17.2125 22.625 14.81 22.4729 12.3794C22.3208 9.94887 21.2866 7.65742 19.5646 5.93539C17.8426 4.21336 15.5511 3.17919 13.1205 3.0271C10.69 2.875 8.28746 3.61542 6.36418 5.10934C4.44089 6.60326 3.12912 8.7479 2.67518 11.1405C2.24864 13.3888 2.60708 15.7107 3.68271 17.7205L2.90934 20.4273C2.8236 20.7273 2.81968 21.0449 2.89796 21.347C2.97624 21.6491 3.13389 21.9248 3.35457 22.1455C3.57525 22.3661 3.85093 22.5238 4.15304 22.6021C4.45514 22.6803 4.77269 22.6764 5.07277 22.5907L7.77956 21.8173Z" fill="#131313"/>
<path fill-rule="evenodd" clip-rule="evenodd" d="M19.9937 9.95826C20.0241 9.40681 20.4957 8.98437 21.0472 9.01472C22.7636 9.10918 24.4267 9.64441 25.8761 10.5688C27.3255 11.4932 28.5121 12.7755 29.3216 14.292C30.1311 15.8085 30.5361 17.5081 30.4974 19.2267C30.4621 20.7985 30.0569 22.3377 29.3172 23.7203L30.0906 26.4272C30.1764 26.7273 30.1803 27.0448 30.102 27.3469C30.0237 27.649 29.8661 27.9247 29.6454 28.1454C29.4247 28.3661 29.149 28.5237 28.8469 28.602C28.5448 28.6803 28.2273 28.6764 27.9272 28.5906L25.2203 27.8172C24.0477 28.4444 22.7604 28.8323 21.4335 28.9564C19.9604 29.0943 18.4751 28.9038 17.0845 28.3985C15.6939 27.8933 14.4327 27.0859 13.3917 26.0346C12.3506 24.9833 11.5557 23.7143 11.0642 22.3188C10.8807 21.7979 11.1542 21.2268 11.6751 21.0433C12.196 20.8599 12.7671 21.1334 12.9505 21.6543C13.3438 22.7708 13.9799 23.7862 14.8128 24.6274C15.6458 25.4685 16.6549 26.1145 17.7675 26.5187C18.8801 26.923 20.0685 27.0755 21.2472 26.9652C22.421 26.8553 23.5561 26.4875 24.5713 25.8881C24.8074 25.7436 25.0962 25.7017 25.3682 25.7795L28.044 26.544L27.2795 23.8682C27.2006 23.5924 27.2454 23.304 27.3886 23.0705C28.0852 21.8907 28.4672 20.5517 28.498 19.1818C28.5288 17.8068 28.2048 16.4471 27.5572 15.2338C26.9096 14.0205 25.9602 12.9946 24.8006 12.255C23.6411 11.5155 22.3105 11.0873 20.9373 11.0117C20.3858 10.9814 19.9634 10.5097 19.9937 9.95826Z" fill="#131313"/>
</svg>
