<svg width="74" height="56" viewBox="0 0 74 56" fill="none" xmlns="http://www.w3.org/2000/svg">
<path d="M0 0H73.8095V55.3571H0V0Z" fill="#012169"/>
<path d="M8.64955 0L36.7894 20.8743L64.814 0H73.8095V7.1503L46.131 27.7939L73.8095 48.3222V55.3571H64.5833L36.9048 34.7135L9.34152 55.3571H0V48.4375L27.5632 27.9092L0 7.38095V0H8.64955Z" fill="white"/>
<path d="M48.8988 32.407L73.8095 50.7441V55.3571L42.5558 32.407H48.8988ZM27.6786 34.7135L28.3705 38.75L6.22768 55.3571H0L27.6786 34.7135ZM73.8095 0V0.345982L45.093 22.0275L45.3237 16.9531L68.0432 0H73.8095ZM0 0L27.5632 20.2976H20.6436L0 4.84375V0Z" fill="#C8102E"/>
<path d="M27.7939 0V55.3571H46.2463V0H27.7939ZM0 18.4524V36.9048H73.8095V18.4524H0Z" fill="white"/>
<path d="M0 22.2582V33.3296H73.8095V22.2582H0ZM31.4844 0V55.3571H42.5558V0H31.4844Z" fill="#C8102E"/>
</svg>
