<svg width="73" height="72" viewBox="0 0 73 72" fill="none" xmlns="http://www.w3.org/2000/svg">
<path d="M21.8645 11.3416H51.1355C51.6594 11.3402 52.1784 11.4424 52.6627 11.6423C53.1469 11.8422 53.5869 12.1358 53.9573 12.5063C54.3277 12.8769 54.6212 13.3169 54.8209 13.8013C55.0206 14.2856 55.1226 14.8047 55.121 15.3286V56.6731C55.1224 57.1968 55.0202 57.7157 54.8204 58.1999C54.6206 58.6841 54.3271 59.124 53.9568 59.4943C53.5864 59.8647 53.1465 60.1582 52.6623 60.358C52.1782 60.5578 51.6593 60.66 51.1355 60.6586H21.8645C21.3407 60.66 20.8218 60.5578 20.3377 60.358C19.8535 60.1582 19.4136 59.8647 19.0432 59.4943C18.6729 59.124 18.3794 58.6841 18.1796 58.1999C17.9798 57.7157 17.8776 57.1968 17.879 56.6731V15.3286C17.8774 14.8048 17.9794 14.2859 18.179 13.8016C18.3786 13.3174 18.672 12.8774 19.0422 12.5069C19.4124 12.1364 19.8522 11.8427 20.3363 11.6427C20.8204 11.4427 21.3392 11.3404 21.863 11.3416M23.525 25.3291H50.0795M23.525 30.4681H50.0795M23.525 35.6101H50.0795M23.525 40.7491H50.0795M23.525 20.1886H34.1705M23.525 45.8896H34.1705M23.525 51.0301H50.0795M17.8775 56.6041H55.1225M30.2885 56.6041V60.6571M42.713 56.6041V60.6571M17.8535 55.2571L8.888 21.7861C8.75089 21.2805 8.71506 20.7528 8.78257 20.2333C8.85008 19.7139 9.0196 19.2129 9.28139 18.7591C9.54317 18.3054 9.89206 17.9079 10.308 17.5894C10.7239 17.271 11.1987 17.0379 11.705 16.9036L17.855 15.2551M55.1465 55.2571L64.112 21.7861C64.2491 21.2805 64.2849 20.7528 64.2174 20.2333C64.1499 19.7139 63.9804 19.2129 63.7186 18.7591C63.4568 18.3054 63.108 17.9079 62.692 17.5894C62.2761 17.271 61.8013 17.0379 61.295 16.9036L55.145 15.2551" stroke="white" stroke-width="2" stroke-linecap="round" stroke-linejoin="round"/>
</svg>
