<svg width="36" height="36" viewBox="0 0 36 36" fill="none" xmlns="http://www.w3.org/2000/svg">
<path d="M24 15C25.6569 15 27 13.6569 27 12C27 10.3431 25.6569 9 24 9C22.3431 9 21 10.3431 21 12C21 13.6569 22.3431 15 24 15Z" stroke="#4A148C" stroke-width="2"/>
<path d="M3 18.7498L5.628 16.4503C6.28671 15.8744 7.13962 15.5703 8.01408 15.5996C8.88855 15.6288 9.71924 15.9892 10.338 16.6078L16.773 23.0428C17.2724 23.5421 17.9318 23.8492 18.6353 23.9101C19.3388 23.971 20.0413 23.7818 20.619 23.3758L21.0675 23.0608C21.9009 22.4755 22.9082 22.1902 23.9247 22.2515C24.9413 22.3128 25.907 22.7171 26.664 23.3983L31.5 27.7498" stroke="#4A148C" stroke-width="2" stroke-linecap="round"/>
<path d="M33 18C33 25.071 33 28.6065 30.8025 30.8025C28.608 33 25.071 33 18 33C10.929 33 7.3935 33 5.196 30.8025C3 28.608 3 25.071 3 18C3 10.929 3 7.3935 5.196 5.196C7.395 3 10.929 3 18 3C25.071 3 28.6065 3 30.8025 5.196C32.2635 6.657 32.7525 8.7105 32.9175 12" stroke="#4A148C" stroke-width="2" stroke-linecap="round"/>
</svg>
