<svg width="73" height="72" viewBox="0 0 73 72" fill="none" xmlns="http://www.w3.org/2000/svg">
<path d="M36.5 6C53.051 6 66.5 19.335 66.5 35.829C66.5 39.915 65.993 42.852 65.222 45.228C63.389 50.874 59.6 55.623 55.316 59.628C52.37 62.382 47.999 61.962 45.374 59.352C41.648 55.647 40.628 49.896 44.669 45.882L47.429 43.137C48.8075 41.7676 50.6638 40.9866 52.6067 40.9586C54.5496 40.9306 56.4276 41.6578 57.845 42.987C58.676 43.767 59.087 44.697 59.516 43.377C60.059 41.697 60.5 39.396 60.5 35.829C60.5 22.686 49.772 12 36.5 12C23.228 12 12.5 22.686 12.5 35.829C12.5 39.399 12.941 41.694 13.484 43.377C13.913 44.697 14.324 43.767 15.155 42.987C16.5724 41.6578 18.4504 40.9306 20.3933 40.9586C22.3362 40.9866 24.1925 41.7676 25.571 43.137L28.331 45.882C32.372 49.896 31.352 55.647 27.626 59.352C25.001 61.962 20.63 62.382 17.684 59.631C13.37 55.599 9.623 50.907 7.778 45.231C7.01 42.849 6.5 39.912 6.5 35.826C6.5 19.335 19.949 6 36.5 6ZM51.656 47.394C49.922 49.116 46.286 51.795 48.896 54.393C49.472 54.963 50.369 56.037 51.218 55.245C53.132 53.457 55.007 51.435 56.267 49.734C55.277 48.804 53.189 45.873 51.656 47.394ZM21.344 47.394C19.814 45.873 17.723 48.804 16.733 49.734C17.993 51.435 19.868 53.454 21.782 55.245C22.628 56.037 23.528 54.966 24.104 54.393C26.714 51.795 23.078 49.116 21.344 47.394Z" fill="white"/>
</svg>
