<svg width="33" height="32" viewBox="0 0 33 32" fill="none" xmlns="http://www.w3.org/2000/svg">
<path d="M8.49992 25.3332H12.4999V18.6665C12.4999 18.2887 12.6279 17.9723 12.8839 17.7172C13.1399 17.4621 13.4564 17.3341 13.8333 17.3332H19.1666C19.5444 17.3332 19.8613 17.4612 20.1173 17.7172C20.3733 17.9732 20.5008 18.2896 20.4999 18.6665V25.3332H24.4999V13.3332L16.4999 7.33317L8.49992 13.3332V25.3332ZM5.83325 25.3332V13.3332C5.83325 12.9109 5.92792 12.5109 6.11725 12.1332C6.30659 11.7554 6.56747 11.4443 6.89992 11.1998L14.8999 5.19984C15.3666 4.84428 15.8999 4.6665 16.4999 4.6665C17.0999 4.6665 17.6333 4.84428 18.0999 5.19984L26.0999 11.1998C26.4333 11.4443 26.6946 11.7554 26.8839 12.1332C27.0733 12.5109 27.1675 12.9109 27.1666 13.3332V25.3332C27.1666 26.0665 26.9053 26.6945 26.3826 27.2172C25.8599 27.7398 25.2324 28.0007 24.4999 27.9998H19.1666C18.7888 27.9998 18.4724 27.8718 18.2173 27.6158C17.9621 27.3598 17.8341 27.0434 17.8333 26.6665V19.9998H15.1666V26.6665C15.1666 27.0443 15.0386 27.3612 14.7826 27.6172C14.5266 27.8732 14.2101 28.0007 13.8333 27.9998H8.49992C7.76659 27.9998 7.13903 27.7389 6.61725 27.2172C6.09547 26.6954 5.83414 26.0674 5.83325 25.3332Z" fill="black"/>
</svg>
