<svg width="33" height="32" viewBox="0 0 33 32" fill="none" xmlns="http://www.w3.org/2000/svg">
<path d="M12.4787 27.5505H8.09208C6.47608 27.5505 5.16675 26.2412 5.16675 24.6252V16.0199C5.16773 15.393 5.30267 14.7735 5.56251 14.203C5.82236 13.6325 6.20112 13.1241 6.67341 12.7119L14.5801 5.82519C15.1125 5.36203 15.7944 5.10693 16.5001 5.10693C17.2058 5.10693 17.8877 5.36203 18.4201 5.82519L26.3267 12.7132C26.7989 13.1253 27.1775 13.6335 27.4374 14.2037C27.6972 14.774 27.8322 15.3932 27.8334 16.0199V24.6252C27.8334 25.4008 27.5254 26.1447 26.9771 26.6932C26.4288 27.2418 25.685 27.5502 24.9094 27.5505H20.8867V18.7759C20.8867 17.5652 19.9054 16.5825 18.6934 16.5825H14.6734C13.4614 16.5825 12.4801 17.5652 12.4801 18.7759L12.4787 27.5505ZM12.4787 27.5505H20.8881" stroke="black" stroke-width="2" stroke-linejoin="round"/>
</svg>
