<svg width="40" height="40" viewBox="0 0 40 40" fill="none" xmlns="http://www.w3.org/2000/svg">
<path d="M20.8333 15.0002C20.5278 15.0002 20.2917 14.8613 20.125 14.5835C19.9583 14.3057 19.9583 14.0279 20.125 13.7502L25 5.29183C25.2222 4.93072 25.5 4.71572 25.8333 4.64683C26.1667 4.57794 26.5278 4.64016 26.9167 4.8335C28.8333 5.69461 30.5278 6.89572 32 8.43683C33.4722 9.97794 34.6111 11.7213 35.4167 13.6668C35.5556 14.0279 35.5344 14.3407 35.3533 14.6052C35.1722 14.8696 34.8878 15.0013 34.5 15.0002H20.8333ZM14.875 17.0418L9.875 8.37516C9.65278 8.01405 9.59722 7.65294 9.70834 7.29183C9.81945 6.93072 10.0417 6.63905 10.375 6.41683C11.7083 5.47238 13.1878 4.72238 14.8133 4.16683C16.4389 3.61127 18.1678 3.3335 20 3.3335C20.4167 3.3335 20.875 3.35461 21.375 3.39683C21.875 3.43905 22.2917 3.48738 22.625 3.54183C23.0139 3.59738 23.2711 3.76405 23.3967 4.04183C23.5222 4.31961 23.4872 4.62516 23.2917 4.9585L16.3333 17.0418C16.1667 17.3196 15.9239 17.4585 15.605 17.4585C15.2861 17.4585 15.0428 17.3196 14.875 17.0418ZM4.75 23.3335C4.44445 23.3335 4.16667 23.2296 3.91667 23.0218C3.66667 22.814 3.51389 22.5568 3.45834 22.2502C3.40278 21.9435 3.36834 21.6102 3.355 21.2502C3.34167 20.8902 3.33445 20.4735 3.33334 20.0002C3.33334 18.2502 3.61834 16.5074 4.18834 14.7718C4.75834 13.0363 5.64 11.3902 6.83334 9.8335C7.13889 9.44461 7.49334 9.25016 7.89667 9.25016C8.3 9.25016 8.61222 9.4585 8.83334 9.87516L15.8333 22.0835C16 22.3613 15.9933 22.6391 15.8133 22.9168C15.6333 23.1946 15.39 23.3335 15.0833 23.3335H4.75ZM13.0833 35.1668C11.25 34.2779 9.56945 33.0696 8.04167 31.5418C6.51389 30.0141 5.36111 28.2779 4.58334 26.3335C4.44445 25.9724 4.47222 25.6602 4.66667 25.3968C4.86111 25.1335 5.15278 25.0013 5.54167 25.0002H19.125C19.4306 25.0002 19.6667 25.1391 19.8333 25.4168C20 25.6946 20 25.9724 19.8333 26.2502L15.0417 34.6252C14.8194 34.9863 14.5417 35.2224 14.2083 35.3335C13.875 35.4446 13.5 35.3891 13.0833 35.1668ZM20 36.6668C19.6111 36.6668 19.1733 36.6457 18.6867 36.6035C18.2 36.5613 17.7767 36.5129 17.4167 36.4585C17.0278 36.4029 16.7639 36.2363 16.625 35.9585C16.4861 35.6807 16.5139 35.3752 16.7083 35.0418L23.5833 23.0418C23.75 22.7641 24.0278 22.6252 24.4167 22.6252C24.8056 22.6252 25.0833 22.7641 25.25 23.0418L30.1667 31.5835C30.3611 31.8891 30.4239 32.2224 30.355 32.5835C30.2861 32.9446 30.0567 33.2779 29.6667 33.5835C28.3889 34.5279 26.8961 35.2779 25.1883 35.8335C23.4806 36.3891 21.7511 36.6668 20 36.6668ZM31.2917 30.2085L24.2083 17.9168C24.0417 17.6391 24.0489 17.3613 24.23 17.0835C24.4111 16.8057 24.6539 16.6668 24.9583 16.6668H35.25C35.5556 16.6668 35.8333 16.7713 36.0833 16.9802C36.3333 17.1891 36.4861 17.4457 36.5417 17.7502C36.5972 18.0546 36.6317 18.3879 36.645 18.7502C36.6583 19.1124 36.6656 19.5291 36.6667 20.0002C36.6667 21.7502 36.3817 23.5074 35.8117 25.2718C35.2417 27.0363 34.36 28.6818 33.1667 30.2085C32.9444 30.5141 32.625 30.6741 32.2083 30.6885C31.7917 30.7029 31.4861 30.5429 31.2917 30.2085Z" fill="#006064"/>
</svg>
