<svg width="40" height="40" viewBox="0 0 40 40" fill="none" xmlns="http://www.w3.org/2000/svg">
<rect width="40" height="40" rx="12" fill="url(#paint0_linear_5539_4501)"/>
<path fill-rule="evenodd" clip-rule="evenodd" d="M33.2875 25.3044C33.8823 24.265 34.2222 23.0611 34.2222 21.7777C34.2222 17.8504 31.0385 14.6666 27.1111 14.6666C23.1838 14.6666 20 17.8504 20 21.7777C20 25.7051 23.1838 28.8888 27.1111 28.8888C28.9061 28.8888 30.5457 28.2238 31.7971 27.1267L33.9827 27.6514L33.2875 25.3044Z" fill="white"/>
<path fill-rule="evenodd" clip-rule="evenodd" d="M22.3227 27.0351C24.4245 25.4093 25.7778 22.8627 25.7778 19.9999C25.7778 18.2364 25.2642 16.5928 24.3785 15.2106C21.8074 16.2816 20 18.8186 20 21.7777C20 23.8607 20.8956 25.7345 22.3227 27.0351Z" fill="#E6F2FF" fill-opacity="0.5"/>
<path fill-rule="evenodd" clip-rule="evenodd" d="M14.6667 28.8889C19.5759 28.8889 23.5555 24.9092 23.5555 20C23.5555 15.0908 19.5759 11.1111 14.6667 11.1111C9.75746 11.1111 5.77777 15.0908 5.77777 20C5.77777 21.5859 6.19312 23.0749 6.92097 24.364L5.94741 27.6515L9.06571 26.9026C10.5944 28.1446 12.5436 28.8889 14.6667 28.8889Z" fill="#F8F8F8"/>
<defs>
<linearGradient id="paint0_linear_5539_4501" x1="36.5625" y1="2.1875" x2="2.96875" y2="37.1875" gradientUnits="userSpaceOnUse">
<stop stop-color="#007AFF"/>
<stop offset="1" stop-color="#0058B7"/>
</linearGradient>
</defs>
</svg>
