<svg width="33" height="32" viewBox="0 0 33 32" fill="none" xmlns="http://www.w3.org/2000/svg">
<path fill-rule="evenodd" clip-rule="evenodd" d="M15.5561 4.4105C15.0307 5.09584 14.4387 6.1545 13.5774 7.6985L13.1414 8.48117L13.0627 8.6225C12.6627 9.3425 12.3227 9.95317 11.7774 10.3665C11.2267 10.7852 10.5547 10.9358 9.7734 11.1118L9.6214 11.1465L8.7734 11.3385C7.10007 11.7172 5.96007 11.9772 5.1814 12.2852C4.42007 12.5838 4.26007 12.8305 4.19873 13.0265C4.1334 13.2345 4.13207 13.5532 4.5854 14.2758C5.04807 15.0092 5.82807 15.9238 6.96673 17.2572L7.5454 17.9332L7.6454 18.0492C8.18273 18.6758 8.63073 19.1985 8.83606 19.8598C9.04006 20.5172 8.97206 21.2065 8.8894 22.0438L8.87607 22.1998L8.78807 23.1025C8.61473 24.8785 8.50006 26.1025 8.53873 26.9825C8.57873 27.8625 8.76407 28.1052 8.91207 28.2172C9.04273 28.3172 9.2854 28.4265 10.0761 28.1998C10.8801 27.9705 11.9494 27.4812 13.5161 26.7598L14.3107 26.3945L14.4561 26.3278C15.1827 25.9905 15.8121 25.6998 16.5001 25.6998C17.1881 25.6998 17.8174 25.9905 18.5441 26.3265C18.5912 26.3496 18.6401 26.3718 18.6907 26.3932L19.4841 26.7598C21.0507 27.4812 22.1201 27.9705 22.9241 28.1998C23.7147 28.4265 23.9574 28.3172 24.0881 28.2172C24.2361 28.1052 24.4214 27.8612 24.4614 26.9825C24.5014 26.1025 24.3841 24.8785 24.2121 23.1025L24.1241 22.1998L24.1107 22.0438C24.0281 21.2065 23.9601 20.5172 24.1641 19.8598C24.3694 19.1985 24.8174 18.6758 25.3547 18.0492L25.4547 17.9332L26.0334 17.2572C27.1721 15.9238 27.9521 15.0092 28.4134 14.2758C28.8681 13.5532 28.8667 13.2358 28.8014 13.0265C28.7401 12.8305 28.5801 12.5838 27.8187 12.2852C27.0387 11.9772 25.9001 11.7172 24.2267 11.3385L23.3787 11.1465L23.2267 11.1118C22.4454 10.9358 21.7734 10.7852 21.2227 10.3665C20.6761 9.95317 20.3387 9.34384 19.9374 8.6225L19.8601 8.48117L19.4227 7.6985C18.5614 6.1545 17.9694 5.09584 17.4441 4.4105C16.9187 3.72517 16.6521 3.6665 16.5001 3.6665C16.3481 3.6665 16.0801 3.72517 15.5561 4.4105ZM13.9694 3.1945C14.6027 2.36517 15.3881 1.6665 16.5001 1.6665C17.6121 1.6665 18.3961 2.36517 19.0321 3.1945C19.6561 4.0105 20.3187 5.1985 21.1281 6.6505L21.6067 7.50784C22.1294 8.4465 22.2641 8.6465 22.4321 8.7745C22.5921 8.89584 22.8014 8.96517 23.8187 9.19584L24.7521 9.4065C26.3201 9.76117 27.6121 10.0532 28.5521 10.4238C29.5281 10.8092 30.3827 11.3758 30.7121 12.4332C31.0374 13.4798 30.6721 14.4425 30.1067 15.3398C29.5574 16.2132 28.6801 17.2398 27.6081 18.4932L26.9747 19.2332C26.2854 20.0385 26.1414 20.2358 26.0734 20.4532C26.0054 20.6758 26.0107 20.9332 26.1161 22.0065L26.2107 22.9905C26.3734 24.6652 26.5054 26.0305 26.4587 27.0705C26.4121 28.1305 26.1721 29.1465 25.2987 29.8105C24.4081 30.4852 23.3721 30.4105 22.3721 30.1225C21.4027 29.8452 20.1947 29.2892 18.7281 28.6132L17.8534 28.2105C16.8961 27.7705 16.6921 27.6998 16.5001 27.6998C16.3081 27.6998 16.1041 27.7705 15.1467 28.2105L14.2734 28.6132C12.8054 29.2892 11.5974 29.8452 10.6281 30.1225C9.62807 30.4092 8.59207 30.4852 7.70273 29.8105C6.82807 29.1465 6.58807 28.1305 6.5414 27.0718C6.49473 26.0318 6.62673 24.6652 6.7894 22.9918L6.8854 22.0065C6.9894 20.9318 6.99473 20.6758 6.9254 20.4532C6.85873 20.2358 6.71473 20.0398 6.0254 19.2332L5.39207 18.4932C4.3214 17.2398 3.44407 16.2132 2.89473 15.3412C2.32807 14.4425 1.96273 13.4798 2.28807 12.4332C2.6174 11.3758 3.47207 10.8092 4.44807 10.4238C5.38807 10.0532 6.68007 9.76117 8.24806 9.4065L8.33207 9.38784L9.18007 9.19584C10.1987 8.96517 10.4067 8.89584 10.5681 8.77317C10.7361 8.6465 10.8707 8.4465 11.3947 7.50784L11.8721 6.6505C12.6814 5.19717 13.3441 4.0105 13.9681 3.1945" fill="#131313"/>
</svg>
