<svg width="33" height="32" viewBox="0 0 33 32" fill="none" xmlns="http://www.w3.org/2000/svg">
<path fill-rule="evenodd" clip-rule="evenodd" d="M9.44766 20.2937C11.3543 19.6545 13.8801 19.4617 16.4797 19.4617C19.095 19.4617 21.6216 19.6619 23.5256 20.3095C24.4829 20.6351 25.3558 21.0975 25.998 21.7707C26.6633 22.4679 27.039 23.3497 27.039 24.3918C27.039 25.4362 26.6599 26.3174 25.9908 27.0121C25.3454 27.6821 24.4694 28.1401 23.5112 28.4615C21.6049 29.1009 19.0794 29.2941 16.4797 29.2941C13.8645 29.2941 11.3376 29.0941 9.4332 28.4467C8.47578 28.1212 7.6027 27.6589 6.9603 26.9857C6.29485 26.2883 5.91904 25.4064 5.91904 24.3639C5.91904 23.3193 6.29824 22.4378 6.96753 21.7431C7.61309 21.0729 8.48929 20.615 9.44766 20.2937ZM8.40789 23.1306C8.09031 23.4603 7.91904 23.8472 7.91904 24.3639C7.91904 24.8827 8.09021 25.2727 8.40725 25.605C8.74736 25.9614 9.2923 26.2864 10.0769 26.5531C11.6567 27.0902 13.9101 27.2941 16.4797 27.2941C19.0368 27.2941 21.291 27.0967 22.8752 26.5653C23.6622 26.3013 24.2091 25.9788 24.5503 25.6246C24.8679 25.295 25.039 24.9081 25.039 24.3918C25.039 23.8734 24.868 23.4835 24.551 23.1513C24.2109 22.7949 23.6661 22.4698 22.8816 22.203C21.3022 21.6658 19.0491 21.4617 16.4797 21.4617C13.9224 21.4617 11.6679 21.6587 10.0834 22.19C9.29624 22.4539 8.74919 22.7764 8.40789 23.1306Z" fill="#131313"/>
<path fill-rule="evenodd" clip-rule="evenodd" d="M9.35142 9.87798C9.35233 5.94207 12.5441 2.75269 16.4797 2.75269C20.4161 2.75269 23.6067 5.94326 23.6067 9.87967C23.6067 13.8158 20.4164 17.0079 16.4797 17.0079H16.4365L16.4331 17.0079C12.5097 16.9946 9.33903 13.8019 9.35142 9.87798ZM16.4797 4.75269C13.6476 4.75269 11.3514 7.0481 11.3514 9.87967V9.88306H11.3514C11.3419 12.7032 13.6201 14.9975 16.4383 15.0079H16.4797C19.3112 15.0079 21.6067 12.7118 21.6067 9.87967C21.6067 7.04783 19.3115 4.75269 16.4797 4.75269Z" fill="#131313"/>
</svg>
