<svg width="73" height="72" viewBox="0 0 73 72" fill="none" xmlns="http://www.w3.org/2000/svg">
<path d="M27.5 55.5C27.5 51.63 25.07 48.267 22.1 45.789C18.5465 42.8294 15.9913 38.8468 14.7821 34.3831C13.5729 29.9194 13.7685 25.1916 15.3423 20.8431C16.916 16.4945 19.7915 12.7366 23.5773 10.0806C27.3632 7.42472 31.8754 5.99986 36.5 6C41.1238 6.0006 45.6352 7.42575 49.4203 10.0815C53.2054 12.7373 56.0803 16.4947 57.654 20.8426C59.2276 25.1904 59.4235 29.9175 58.215 34.3806C57.0065 38.8437 54.4523 42.8261 50.9 45.786C47.93 48.267 45.5 51.63 45.5 55.5M27.5 55.5H45.5M27.5 55.5V61.5C27.5 62.6935 27.9741 63.8381 28.818 64.682C29.6619 65.5259 30.8065 66 32 66H41C42.1935 66 43.3381 65.5259 44.182 64.682C45.0259 63.8381 45.5 62.6935 45.5 61.5V55.5" stroke="white" stroke-width="4" stroke-linecap="round" stroke-linejoin="round"/>
<path d="M30.5 24C30.5 20.961 33.185 18 36.5 18C39.815 18 42.5 20.46 42.5 23.499C42.5 24.594 42.152 25.614 41.549 26.472C39.755 29.028 36.5 31.464 36.5 34.5M36.476 42H36.503" stroke="white" stroke-width="3" stroke-linecap="round" stroke-linejoin="round"/>
</svg>
