<svg width="50" height="50" viewBox="0 0 50 50" fill="none" xmlns="http://www.w3.org/2000/svg">
<g clip-path="url(#clip0_5519_13709)">
<path fill-rule="evenodd" clip-rule="evenodd" d="M22.875 0.0905487C27.1897 -0.277667 31.5261 0.481193 35.4594 2.29279C39.3926 4.10439 42.7879 6.9066 45.3125 10.4249V5.46867C45.3125 4.84707 45.5594 4.25093 45.999 3.81139C46.4385 3.37185 47.0346 3.12492 47.6562 3.12492C48.2779 3.12492 48.874 3.37185 49.3135 3.81139C49.7531 4.25093 50 4.84707 50 5.46867V18.7499H36.7188C36.0971 18.7499 35.501 18.503 35.0615 18.0635C34.6219 17.6239 34.375 17.0278 34.375 16.4062C34.375 15.7846 34.6219 15.1884 35.0615 14.7489C35.501 14.3094 36.0971 14.0624 36.7188 14.0624H42.1156C39.9785 10.7184 36.9086 8.07363 33.2851 6.45489C29.6616 4.83615 25.6433 4.31432 21.7265 4.95387C17.8098 5.59342 14.1661 7.36634 11.2458 10.0536C8.32538 12.7409 6.25618 16.2248 5.29375 20.0749C5.22276 20.3774 5.09235 20.6627 4.9101 20.9143C4.72786 21.1659 4.49741 21.3787 4.23217 21.5404C3.96692 21.7022 3.67217 21.8096 3.36505 21.8564C3.05794 21.9032 2.74458 21.8884 2.4432 21.813C2.14183 21.7376 1.85845 21.6031 1.60954 21.4172C1.36064 21.2313 1.15117 20.9978 0.993328 20.7302C0.835484 20.4626 0.73241 20.1663 0.690101 19.8585C0.647791 19.5508 0.66709 19.2377 0.746875 18.9374C2.01107 13.8825 4.82313 9.34892 8.78998 5.97038C12.7568 2.59184 17.6802 0.537207 22.8719 0.0936737L22.875 0.0905487ZM12.25 46.503C15.6 48.4886 19.3674 49.6641 23.2521 49.9359C27.1368 50.2077 31.0313 49.5683 34.6251 48.0685C38.2189 46.5688 41.4126 44.2502 43.9518 41.2977C46.4909 38.3451 48.3052 34.8403 49.25 31.0624C49.3907 30.463 49.2899 29.8324 48.9694 29.3067C48.6488 28.781 48.1343 28.4026 47.5371 28.2532C46.9398 28.1037 46.3077 28.1953 45.7774 28.5082C45.2471 28.821 44.8612 29.3299 44.7031 29.9249C43.7402 33.7743 41.6709 37.2573 38.7508 39.9439C35.8307 42.6304 32.1876 44.4029 28.2715 45.0424C24.3554 45.6819 20.3378 45.1604 16.7147 43.5424C13.0917 41.9243 10.0218 39.2805 7.88438 35.9374H13.2812C13.9029 35.9374 14.499 35.6905 14.9385 35.251C15.3781 34.8114 15.625 34.2153 15.625 33.5937C15.625 32.9721 15.3781 32.3759 14.9385 31.9364C14.499 31.4969 13.9029 31.2499 13.2812 31.2499H0V44.5312C0 45.1528 0.24693 45.7489 0.686468 46.1885C1.12601 46.628 1.72215 46.8749 2.34375 46.8749C2.96535 46.8749 3.56149 46.628 4.00103 46.1885C4.44057 45.7489 4.6875 45.1528 4.6875 44.5312V39.5749C6.70244 42.3821 9.27746 44.7411 12.25 46.503Z" fill="white"/>
</g>
<defs>
<clipPath id="clip0_5519_13709">
<rect width="50" height="50" fill="white"/>
</clipPath>
</defs>
</svg>
