<svg width="73" height="72" viewBox="0 0 73 72" fill="none" xmlns="http://www.w3.org/2000/svg">
<path d="M12.5 24V18C12.5 16.4087 13.1321 14.8826 14.2574 13.7574C15.3826 12.6321 16.9087 12 18.5 12H24.5M12.5 48V54C12.5 55.5913 13.1321 57.1174 14.2574 58.2426C15.3826 59.3679 16.9087 60 18.5 60H24.5M48.5 12H54.5C56.0913 12 57.6174 12.6321 58.7426 13.7574C59.8679 14.8826 60.5 16.4087 60.5 18V24M48.5 60H54.5C56.0913 60 57.6174 59.3679 58.7426 58.2426C59.8679 57.1174 60.5 55.5913 60.5 54V48M21.5 36H51.5" stroke="white" stroke-width="4" stroke-linecap="round" stroke-linejoin="round"/>
</svg>
