<svg width="178" height="178" viewBox="0 0 178 178" fill="none" xmlns="http://www.w3.org/2000/svg">
<path d="M66.75 14.8335C81.1582 14.8313 95.0749 20.0719 105.903 29.5774C116.731 39.0828 123.73 52.2035 125.594 66.4906L142.281 92.7382C143.379 94.4662 143.156 97.0398 140.613 98.1375L126.083 104.353V126.083C126.083 130.018 124.521 133.79 121.739 136.572C118.957 139.354 115.184 140.917 111.25 140.917H96.4241L96.4167 163.167H29.6667V135.77C29.6667 127.018 26.433 118.734 20.4403 111.258C13.452 102.532 9.07091 92.0098 7.80174 80.903C6.53258 69.7962 8.42699 58.5568 13.2667 48.4797C18.1065 38.4026 25.6946 29.8977 35.157 23.945C44.6194 17.9922 55.5709 14.8338 66.75 14.8335ZM156.892 134.257L144.543 126.024C151.868 115.067 155.769 102.18 155.75 89.0002C155.772 75.8188 151.874 62.9287 144.551 51.9687L156.892 43.7362C165.845 57.132 170.611 72.8881 170.583 89.0002C170.583 105.747 165.54 121.307 156.892 134.257Z" fill="#007AFF"/>
</svg>
