<svg width="40" height="40" viewBox="0 0 40 40" fill="none" xmlns="http://www.w3.org/2000/svg">
<path d="M25 7.08348V32.9101C25 34.7085 22.8767 35.6618 21.5334 34.4668L14.0467 27.8101C13.8179 27.6071 13.5226 27.4951 13.2167 27.4951H7.08337C6.59092 27.4951 6.10328 27.3982 5.64831 27.2097C5.19334 27.0212 4.77994 26.745 4.43172 26.3968C4.0835 26.0486 3.80728 25.6352 3.61883 25.1802C3.43037 24.7252 3.33337 24.2376 3.33337 23.7451V16.2485C3.33382 15.2542 3.7291 14.3008 4.43231 13.5979C5.13553 12.895 6.0891 12.5001 7.08337 12.5001H13.2167C13.5228 12.4998 13.8181 12.3871 14.0467 12.1835L21.5317 5.52848C22.8767 4.33348 25 5.28681 25 7.08348ZM31.6534 9.83015C31.9197 9.63282 32.2535 9.54936 32.5814 9.59811C32.9092 9.64687 33.2043 9.82386 33.4017 10.0901C35.5272 12.9571 36.6722 16.4328 36.6667 20.0018C36.6713 23.5704 35.5258 27.0455 33.4 29.9118C33.2006 30.1725 32.9067 30.3443 32.5817 30.3901C32.2567 30.4359 31.9267 30.352 31.663 30.1566C31.3993 29.9612 31.2231 29.6699 31.1723 29.3456C31.1215 29.0213 31.2003 28.6901 31.3917 28.4235C33.1983 25.9877 34.1714 23.0344 34.1667 20.0018C34.1718 16.9686 33.1986 14.0147 31.3917 11.5785C31.2938 11.4464 31.2229 11.2964 31.1831 11.137C31.1433 10.9775 31.1353 10.8118 31.1596 10.6492C31.1839 10.4867 31.24 10.3305 31.3248 10.1897C31.4095 10.0488 31.5212 9.92777 31.6534 9.83015ZM28.5717 13.9501C28.716 13.8719 28.8744 13.8228 29.0377 13.8057C29.201 13.7886 29.3661 13.8039 29.5235 13.8507C29.6809 13.8974 29.8275 13.9747 29.9551 14.0781C30.0826 14.1816 30.1885 14.3091 30.2667 14.4535C31.16 16.1035 31.6667 17.9951 31.6667 20.0018C31.6676 21.9382 31.1865 23.8444 30.2667 25.5485C30.1886 25.6929 30.0827 25.8206 29.9553 25.9241C29.8278 26.0277 29.6812 26.1051 29.5238 26.152C29.3664 26.1989 29.2013 26.2144 29.038 26.1974C28.8746 26.1805 28.7162 26.1316 28.5717 26.0535C28.4273 25.9753 28.2996 25.8695 28.196 25.7421C28.0925 25.6146 28.0151 25.468 27.9682 25.3106C27.9213 25.1532 27.9058 24.9881 27.9227 24.8247C27.9397 24.6614 27.9886 24.5029 28.0667 24.3585C28.7891 23.02 29.1672 21.5228 29.1667 20.0018C29.1667 18.4218 28.7667 16.9385 28.0667 15.6435C27.9093 15.3519 27.874 15.0098 27.9687 14.6923C28.0634 14.3748 28.2803 14.1078 28.5717 13.9501Z" fill="black"/>
</svg>
