<svg width="73" height="72" viewBox="0 0 73 72" fill="none" xmlns="http://www.w3.org/2000/svg">
<path d="M55.571 4.8421C55.8781 4.33052 56.3759 3.96189 56.9548 3.81731C57.5338 3.67272 58.1464 3.76401 58.658 4.0711L58.667 4.0771L58.679 4.0831L58.709 4.1011C58.8246 4.17323 58.9376 4.24927 59.048 4.3291C59.258 4.4761 59.546 4.6891 59.879 4.9651C60.545 5.5201 61.415 6.3511 62.285 7.4791C64.031 9.7501 65.75 13.2211 65.75 18.0001C65.75 22.7791 64.031 26.2501 62.285 28.5211C61.415 29.6491 60.545 30.4801 59.879 31.0351C59.5316 31.3254 59.168 31.5959 58.79 31.8451L58.706 31.8991L58.676 31.9171L58.667 31.9231L58.661 31.9261C58.661 31.9261 58.658 31.9291 57.5 30.0001L58.658 31.9291C58.1484 32.2183 57.5461 32.2973 56.9792 32.1493C56.4123 32.0014 55.9255 31.6381 55.6222 31.1367C55.319 30.6354 55.2233 30.0355 55.3555 29.4647C55.4876 28.8939 55.8373 28.3971 56.33 28.0801L56.345 28.0681L56.468 27.9871C56.65 27.8577 56.8271 27.7216 56.999 27.5791C57.455 27.1951 58.085 26.6011 58.718 25.7791C59.969 24.1501 61.25 21.6211 61.25 18.0001C61.25 14.3791 59.969 11.8501 58.718 10.2211C58.2124 9.56016 57.636 8.95656 56.999 8.4211C56.7885 8.24829 56.5703 8.08512 56.345 7.9321L56.33 7.9201C55.8229 7.61105 55.4585 7.11406 55.3164 6.53747C55.1742 5.96089 55.2657 5.35148 55.571 4.8421Z" fill="white"/>
<path fill-rule="evenodd" clip-rule="evenodd" d="M30.5 3.75C26.7207 3.75 23.0961 5.25133 20.4237 7.92373C17.7513 10.5961 16.25 14.2207 16.25 18C16.25 21.7793 17.7513 25.4039 20.4237 28.0763C23.0961 30.7487 26.7207 32.25 30.5 32.25C34.2793 32.25 37.9039 30.7487 40.5763 28.0763C43.2487 25.4039 44.75 21.7793 44.75 18C44.75 14.2207 43.2487 10.5961 40.5763 7.92373C37.9039 5.25133 34.2793 3.75 30.5 3.75ZM20.75 18C20.75 15.4141 21.7772 12.9342 23.6057 11.1057C25.4342 9.27723 27.9141 8.25 30.5 8.25C33.0859 8.25 35.5658 9.27723 37.3943 11.1057C39.2228 12.9342 40.25 15.4141 40.25 18C40.25 20.5859 39.2228 23.0658 37.3943 24.8943C35.5658 26.7228 33.0859 27.75 30.5 27.75C27.9141 27.75 25.4342 26.7228 23.6057 24.8943C21.7772 23.0658 20.75 20.5859 20.75 18ZM30.5 36.75C23.561 36.75 17.165 38.328 12.428 40.992C7.76 43.62 4.25 47.598 4.25 52.5V52.806C4.247 56.292 4.244 60.666 8.081 63.792C9.968 65.328 12.611 66.423 16.181 67.143C19.757 67.869 24.422 68.25 30.5 68.25C36.578 68.25 41.24 67.869 44.822 67.143C48.392 66.423 51.032 65.328 52.922 63.792C56.759 60.666 56.753 56.292 56.75 52.806V52.5C56.75 47.598 53.24 43.62 48.575 40.992C43.835 38.328 37.442 36.75 30.5 36.75ZM8.75 52.5C8.75 49.947 10.616 47.175 14.633 44.916C18.581 42.696 24.185 41.25 30.503 41.25C36.815 41.25 42.419 42.696 46.367 44.916C50.387 47.175 52.25 49.947 52.25 52.5C52.25 56.424 52.13 58.632 50.078 60.3C48.968 61.206 47.108 62.091 43.928 62.733C40.757 63.375 36.422 63.75 30.5 63.75C24.578 63.75 20.24 63.375 17.072 62.733C13.892 62.091 12.032 61.206 10.922 60.303C8.87 58.632 8.75 56.424 8.75 52.5Z" fill="white"/>
<path d="M52.658 10.0711C52.1464 9.76401 51.5338 9.67272 50.9548 9.81731C50.3759 9.96189 49.8781 10.3305 49.571 10.8421L50.315 13.9141L50.339 13.9291L50.528 14.0761C50.708 14.2261 50.96 14.4631 51.218 14.7961C51.719 15.4501 52.25 16.4761 52.25 18.0001C52.25 19.5211 51.719 20.5501 51.218 21.2041C50.9664 21.5332 50.6707 21.8259 50.339 22.0741L50.315 22.0861C49.8054 22.3968 49.4401 22.8972 49.2994 23.4773C49.1588 24.0573 49.2543 24.6695 49.565 25.1791C49.8757 25.6887 50.3761 26.054 50.9562 26.1947C51.5362 26.3353 52.1484 26.2398 52.658 25.9291L52.667 25.9231L52.676 25.9201L52.697 25.9051L52.757 25.8691L52.919 25.7581C53.051 25.6681 53.215 25.5431 53.411 25.3831C53.795 25.0621 54.29 24.5881 54.785 23.9461C56.0862 22.2395 56.778 20.146 56.75 18.0001C56.778 15.8542 56.0862 13.7607 54.785 12.0541C54.254 11.3629 53.6255 10.7526 52.919 10.2421L52.757 10.1311L52.697 10.0951L52.676 10.0801L52.667 10.0771L52.661 10.0741C52.661 10.0741 52.658 10.0711 51.5 12.0001L52.658 10.0711Z" fill="white"/>
</svg>
