<svg width="73" height="72" viewBox="0 0 73 72" fill="none" xmlns="http://www.w3.org/2000/svg">
<path d="M15.5 17.484H23.6M23.6 17.484H29M23.6 17.484V15M33.5 17.484H29M29 17.484C28.052 20.877 26.06 24.087 23.792 26.907L27.263 30.516M18.008 33C20.0831 31.115 22.0164 29.0795 23.792 26.91C22.637 25.551 21.017 23.358 20.552 22.365M41 57L43.499 51M43.499 51L48.5 39L53.501 51M43.499 51H53.501M56 57L53.501 51" stroke="white" stroke-width="4" stroke-linecap="round" stroke-linejoin="round"/>
<path d="M42.5 30V24C42.5 15.516 42.5 11.271 39.863 8.637C37.229 6 32.984 6 24.5 6C16.016 6 11.771 6 9.137 8.637C6.5 11.271 6.5 15.516 6.5 24C6.5 32.484 6.5 36.729 9.137 39.363C11.771 42 16.016 42 24.5 42H30.5" stroke="white" stroke-width="4" stroke-linecap="round" stroke-linejoin="round"/>
<path d="M12.5 49.5C12.5 53.712 12.5 55.821 13.511 57.333C13.9489 57.9884 14.5116 58.5511 15.167 58.989C16.679 60 18.788 60 23 60M60.5 22.5C60.5 18.288 60.5 16.179 59.489 14.667C59.0511 14.0116 58.4884 13.4489 57.833 13.011C56.321 12 54.212 12 50 12M30.5 48C30.5 39.516 30.5 35.271 33.137 32.637C35.771 30 40.016 30 48.5 30C56.984 30 61.229 30 63.863 32.637C66.5 35.271 66.5 39.516 66.5 48C66.5 56.484 66.5 60.729 63.863 63.363C61.229 66 56.984 66 48.5 66C40.016 66 35.771 66 33.137 63.363C30.5 60.729 30.5 56.484 30.5 48Z" stroke="white" stroke-width="4" stroke-linecap="round" stroke-linejoin="round"/>
</svg>
